<svg width="32" height="32" viewBox="0 0 32 32" fill="none" xmlns="http://www.w3.org/2000/svg">
<g id="Icon" clip-path="url(#clip0_3447_2826)">
<path id="Vector" d="M12 6H24" stroke="#213170" stroke-width="1.4" stroke-linecap="round" stroke-linejoin="round"/>
<path id="Vector_2" d="M8 3V6.4375C7.99996 8.10893 8.46537 9.74734 9.34407 11.1692C10.2228 12.591 11.48 13.74 12.975 14.4875L19.025 17.5125C20.52 18.26 21.7772 19.409 22.6559 20.8308C23.5346 22.2527 24 23.8911 24 25.5625V29" stroke="#213170" stroke-width="1.4" stroke-linecap="round" stroke-linejoin="round"/>
<path id="Vector_3" d="M8 26H20" stroke="black" stroke-linecap="round" stroke-linejoin="round"/>
<path id="Vector_4" d="M13.4844 10H23.2631" stroke="black" stroke-linecap="round" stroke-linejoin="round"/>
<path id="Vector_5" d="M8.73438 22H18.5131" stroke="black" stroke-linecap="round" stroke-linejoin="round"/>
<path id="Vector_6" d="M11.6725 18.3086C10.5341 19.1447 9.60846 20.237 8.97046 21.4971C8.33246 22.7573 8.00001 24.1499 8 25.5623V28.9998" stroke="black" stroke-linecap="round" stroke-linejoin="round"/>
<path id="Vector_7" d="M24.0006 3V6.4375C24 7.84932 23.6673 9.24119 23.0293 10.5006C22.3913 11.7601 21.466 12.8518 20.3281 13.6875" stroke="black" stroke-linecap="round" stroke-linejoin="round"/>
</g>
<defs>
<clipPath id="clip0_3447_2826">
<rect width="32" height="32" fill="white"/>
</clipPath>
</defs>
</svg>
