<svg width="32" height="32" viewBox="0 0 32 32" fill="none" xmlns="http://www.w3.org/2000/svg">
<g id="Icon" clip-path="url(#clip0_3447_2855)">
<path id="Vector" d="M26.2814 26.281C28.4356 24.1268 25.5785 17.777 19.8998 12.0982C14.2211 6.41954 7.87121 3.56238 5.71698 5.71661C3.56275 7.87084 6.41991 14.2207 12.0986 19.8994C17.7773 25.5781 24.1272 28.4353 26.2814 26.281Z" stroke="#213170" stroke-width="1.4" stroke-linecap="round" stroke-linejoin="round"/>
<path id="Vector_2" d="M19.8998 19.9018C25.5785 14.223 28.4356 7.87319 26.2814 5.71896C24.1272 3.56473 17.7773 6.42188 12.0986 12.1006C6.41991 17.7793 3.56275 24.1292 5.71698 26.2834C7.87121 28.4376 14.2211 25.5805 19.8998 19.9018Z" stroke="#213170" stroke-width="1.4" stroke-linecap="round" stroke-linejoin="round"/>
<path id="Vector_3" d="M16 17C16.5523 17 17 16.5523 17 16C17 15.4477 16.5523 15 16 15C15.4477 15 15 15.4477 15 16C15 16.5523 15.4477 17 16 17Z" fill="black"/>
</g>
<defs>
<clipPath id="clip0_3447_2855">
<rect width="32" height="32" fill="white"/>
</clipPath>
</defs>
</svg>
