<svg width="18" height="18" viewBox="0 0 18 18" fill="none" xmlns="http://www.w3.org/2000/svg">
<g id="Chart Icon" clip-path="url(#clip0_16188_45250)">
<g id="Group">
<path id="Vector" d="M10.692 16.308L9 18L7.308 16.308C3.9825 15.54 1.5 12.558 1.5 9C1.5 4.86 4.86 1.5 9 1.5C13.14 1.5 16.5 4.86 16.5 9C16.5 12.558 14.0175 15.54 10.692 16.308ZM4.51725 11.562C5.61825 13.2045 7.27125 14.25 9.12 14.25C10.968 14.25 12.6217 13.2052 13.722 11.562C12.4738 10.3954 10.8285 9.74761 9.12 9.75C7.41128 9.74742 5.76563 10.3953 4.51725 11.562ZM9 8.25C9.59674 8.25 10.169 8.01295 10.591 7.59099C11.0129 7.16903 11.25 6.59674 11.25 6C11.25 5.40326 11.0129 4.83097 10.591 4.40901C10.169 3.98705 9.59674 3.75 9 3.75C8.40326 3.75 7.83097 3.98705 7.40901 4.40901C6.98705 4.83097 6.75 5.40326 6.75 6C6.75 6.59674 6.98705 7.16903 7.40901 7.59099C7.83097 8.01295 8.40326 8.25 9 8.25Z" fill="white"/>
</g>
</g>
<defs>
<clipPath id="clip0_16188_45250">
<rect width="18" height="18" fill="white"/>
</clipPath>
</defs>
</svg>
