<svg width="24" height="24" viewBox="0 0 24 24" fill="none" xmlns="http://www.w3.org/2000/svg">
<g id="Icon" clip-path="url(#clip0_3414_9678)">
<path id="Vector" d="M21 12.75C20.6184 17.37 16.7184 21 12 21C9.61305 21 7.32387 20.0518 5.63604 18.364C3.94821 16.6761 3 14.3869 3 12C3 7.28156 6.63 3.38156 11.25 3" stroke="#213170" stroke-linecap="round" stroke-linejoin="round"/>
<path id="Vector_2" d="M12 6.75V12H17.25" stroke="#213170" stroke-linecap="round" stroke-linejoin="round"/>
<path id="Vector_3" d="M15 4.125C15.4142 4.125 15.75 3.78921 15.75 3.375C15.75 2.96079 15.4142 2.625 15 2.625C14.5858 2.625 14.25 2.96079 14.25 3.375C14.25 3.78921 14.5858 4.125 15 4.125Z" fill="#213170"/>
<path id="Vector_4" d="M18.375 6.375C18.7892 6.375 19.125 6.03921 19.125 5.625C19.125 5.21079 18.7892 4.875 18.375 4.875C17.9608 4.875 17.625 5.21079 17.625 5.625C17.625 6.03921 17.9608 6.375 18.375 6.375Z" fill="#213170"/>
<path id="Vector_5" d="M20.625 9.75C21.0392 9.75 21.375 9.41421 21.375 9C21.375 8.58579 21.0392 8.25 20.625 8.25C20.2108 8.25 19.875 8.58579 19.875 9C19.875 9.41421 20.2108 9.75 20.625 9.75Z" fill="#213170"/>
</g>
<defs>
<clipPath id="clip0_3414_9678">
<rect width="24" height="24" fill="white"/>
</clipPath>
</defs>
</svg>
