<svg width="24" height="24" viewBox="0 0 24 24" fill="none" xmlns="http://www.w3.org/2000/svg">
<g id="Box">
<path id="Vector" d="M12.0001 11.9992L20.3875 7.15669M12.0001 11.9992L3.60935 7.14897M12.0001 11.9992L12.0001 20.9992M8.5001 4.49919L16.0001 8.99919M3.33984 8.15389V15.8445C3.33984 16.559 3.72104 17.2193 4.33984 17.5765L11.0001 21.4218C11.6189 21.7791 12.3813 21.7791 13.0001 21.4218L19.6604 17.5765C20.2792 17.2193 20.6604 16.559 20.6604 15.8445V8.15389C20.6604 7.43936 20.2792 6.77911 19.6604 6.42184L13.0001 2.57654C12.3813 2.21928 11.6189 2.21928 11.0001 2.57654L4.33984 6.42184C3.72104 6.77911 3.33984 7.43936 3.33984 8.15389Z" stroke="#213170" stroke-linecap="round" stroke-linejoin="round"/>
</g>
</svg>
