<svg width="24" height="24" viewBox="0 0 24 24" fill="none" xmlns="http://www.w3.org/2000/svg">
<g id="Icon" clip-path="url(#clip0_3414_9671)">
<path id="Vector" d="M19.5 15.75C19.9142 15.75 20.25 15.4142 20.25 15C20.25 14.5858 19.9142 14.25 19.5 14.25C19.0858 14.25 18.75 14.5858 18.75 15C18.75 15.4142 19.0858 15.75 19.5 15.75Z" fill="#213170"/>
<path id="Vector_2" d="M19.5 18C21.1569 18 22.5 16.6569 22.5 15C22.5 13.3431 21.1569 12 19.5 12C17.8431 12 16.5 13.3431 16.5 15C16.5 16.6569 17.8431 18 19.5 18Z" stroke="#213170" stroke-linecap="round" stroke-linejoin="round"/>
<path id="Vector_3" d="M9.75 13.5V18C9.75 18.9946 10.1451 19.9484 10.8483 20.6517C11.5516 21.3549 12.5054 21.75 13.5 21.75H15.75C16.7446 21.75 17.6984 21.3549 18.4017 20.6517C19.1049 19.9484 19.5 18.9946 19.5 18" stroke="#213170" stroke-linecap="round" stroke-linejoin="round"/>
<path id="Vector_4" d="M12.75 3.75H15V8.17219C15 11.0569 12.705 13.4625 9.81937 13.5C9.12412 13.5092 8.43396 13.3802 7.78898 13.1205C7.14399 12.8607 6.55702 12.4755 6.06214 11.9871C5.56726 11.4986 5.17433 10.9168 4.90616 10.2752C4.638 9.63372 4.49994 8.94532 4.5 8.25V3.75H6.75" stroke="#213170" stroke-linecap="round" stroke-linejoin="round"/>
</g>
<defs>
<clipPath id="clip0_3414_9671">
<rect width="24" height="24" fill="white"/>
</clipPath>
</defs>
</svg>
