<svg width="38" height="19" viewBox="0 0 38 19" fill="none" xmlns="http://www.w3.org/2000/svg">
<path id="Vector" d="M36.2541 8.76206C35.1403 7.70534 33.7485 7.17691 32.0784 7.17676H23.9306C23.3568 7.17676 22.7478 7.05368 22.3426 6.71976C21.9633 6.4073 21.5541 5.36762 21.5541 5.36762C21.1525 4.30802 20.5551 3.35165 19.7997 2.5591C18.1801 0.853035 16.0883 0 13.5241 0H8.69005C6.14257 0 4.05504 0.853035 2.42747 2.5591C1.37306 3.66422 0.666176 4.99795 0.296768 6.5553C0.212859 6.91164 0.14705 7.27284 0.0996454 7.63723C-0.0332151 8.33908 -0.0332151 10.6594 0.0996454 11.361C0.147028 11.7255 0.212838 12.0868 0.296768 12.4432C0.666176 14.0003 1.37306 15.3345 2.42747 16.4394C4.05491 18.1454 6.14244 18.9985 8.69005 18.9985H13.5233C16.0537 18.9985 18.1371 18.0806 19.7735 16.2448C20.8116 15.0793 21.5198 13.7191 21.898 12.1641C20.9006 11.9041 19.9665 11.4087 19.1606 10.7123C18.9769 12.0141 18.4707 13.1093 17.6353 13.9925C16.5637 15.1236 15.1931 15.6893 13.5233 15.6896H8.69005C7.03678 15.6896 5.67821 15.1018 4.60331 13.9375C4.28045 13.5908 3.99123 13.2083 3.7403 12.796C2.82644 11.2542 2.80476 8.94993 2.87296 8.65957C3.00582 8.09293 3.14105 6.64869 4.6035 5.06252C5.67841 3.89825 7.03698 3.31037 8.69025 3.31037H13.5235C15.1935 3.31037 16.5642 3.89442 17.6355 5.06252C18.1164 5.5832 18.501 6.2013 18.7681 6.88271C18.7969 6.98239 18.8302 7.07925 18.8641 7.17546C18.9077 7.30548 19.0197 7.5655 19.0197 7.5655C19.2868 8.15057 19.6639 8.67257 20.1606 9.12437C21.1725 10.0329 22.4292 10.4871 23.9308 10.4871H32.0786C32.9052 10.4871 33.6139 10.6821 34.2046 11.0722C34.9131 11.5362 35.2673 12.1946 35.2673 13.0473C35.2673 13.9001 34.9214 14.577 34.2296 15.0781C33.6225 15.4859 32.9055 15.6899 32.0786 15.6901H22.395C21.6503 16.9982 20.6697 18.1246 19.5137 19H32.0784C33.7487 19 35.1406 18.4901 36.2541 17.4702C37.4179 16.3762 37.9999 14.9296 38 13.1305C38.0001 11.3314 37.4182 9.87527 36.2541 8.76206Z" fill="white"/>
</svg>
