<svg width="14" height="14" viewBox="0 0 14 14" fill="none" xmlns="http://www.w3.org/2000/svg">
<g id="remix-icons/line/user/user-voice-line" clip-path="url(#clip0_19034_22312)">
<g id="Group">
<path id="Vector" d="M0.5625 12.375C0.5625 11.1816 1.03661 10.037 1.88052 9.19306C2.72443 8.34915 3.86903 7.87504 5.0625 7.87504C6.25597 7.87504 7.40057 8.34915 8.24448 9.19306C9.08839 10.037 9.5625 11.1816 9.5625 12.375H8.4375C8.4375 11.4799 8.08192 10.6215 7.44899 9.98855C6.81605 9.35562 5.95761 9.00004 5.0625 9.00004C4.16739 9.00004 3.30895 9.35562 2.67601 9.98855C2.04308 10.6215 1.6875 11.4799 1.6875 12.375H0.5625ZM5.0625 7.31254C3.19781 7.31254 1.6875 5.80223 1.6875 3.93754C1.6875 2.07285 3.19781 0.56254 5.0625 0.56254C6.92719 0.56254 8.4375 2.07285 8.4375 3.93754C8.4375 5.80223 6.92719 7.31254 5.0625 7.31254ZM5.0625 6.18754C6.30562 6.18754 7.3125 5.18067 7.3125 3.93754C7.3125 2.69442 6.30562 1.68754 5.0625 1.68754C3.81938 1.68754 2.8125 2.69442 2.8125 3.93754C2.8125 5.18067 3.81938 6.18754 5.0625 6.18754ZM12.1208 0.44104C12.6597 1.52769 12.9393 2.72456 12.9375 3.93754C12.9375 5.1936 12.6433 6.38104 12.1208 7.43404L11.1954 6.76129C11.6034 5.87589 11.8139 4.91239 11.8125 3.93754C11.8125 2.92954 11.5914 1.97273 11.1954 1.11379L12.1208 0.44104ZM10.2634 1.79104C10.5443 2.47175 10.6884 3.20113 10.6875 3.93754C10.6884 4.67395 10.5443 5.40333 10.2634 6.08404L9.32006 5.39779C9.48103 4.92778 9.56295 4.43434 9.5625 3.93754C9.56313 3.44077 9.4814 2.94733 9.32063 2.47729L10.2634 1.79104Z" fill="white"/>
</g>
</g>
<defs>
<clipPath id="clip0_19034_22312">
<rect width="13.5" height="13.5" fill="white"/>
</clipPath>
</defs>
</svg>
