<svg width="14" height="14" viewBox="0 0 14 14" fill="none" xmlns="http://www.w3.org/2000/svg">
<g id="remix-icons/line/health/empathize-line" clip-path="url(#clip0_19034_22319)">
<g id="Group">
<path id="Vector" d="M10.3302 6.17625C11.2088 7.05431 11.2088 8.47913 10.3302 9.35775L7.14812 12.5398C6.92875 12.7592 6.57212 12.7592 6.35275 12.5398L3.17069 9.35775C2.29206 8.47913 2.29206 7.05431 3.17069 6.17569C4.04931 5.29706 5.47412 5.29706 6.35275 6.17569L6.74987 6.57338L7.14812 6.17569C8.02675 5.29706 9.45156 5.29706 10.3302 6.17569V6.17625ZM3.96606 6.9705C3.52731 7.40981 3.52731 8.1225 3.96606 8.56181L6.75044 11.3462L9.53481 8.56181C9.97356 8.1225 9.97356 7.40981 9.53481 6.9705C9.0955 6.53175 8.38281 6.53175 7.94294 6.97163L6.74931 8.163L5.55681 6.9705C5.11806 6.53175 4.40537 6.53175 3.96606 6.9705ZM6.75044 0.5625C7.99356 0.5625 9.00044 1.56938 9.00044 2.8125C9.00044 4.05563 7.99356 5.0625 6.75044 5.0625C5.50731 5.0625 4.50044 4.05563 4.50044 2.8125C4.50044 1.56938 5.50731 0.5625 6.75044 0.5625ZM6.75044 1.6875C6.12887 1.6875 5.62544 2.19094 5.62544 2.8125C5.62544 3.43406 6.12887 3.9375 6.75044 3.9375C7.372 3.9375 7.87544 3.43406 7.87544 2.8125C7.87544 2.19094 7.372 1.6875 6.75044 1.6875Z" fill="black"/>
</g>
</g>
<defs>
<clipPath id="clip0_19034_22319">
<rect width="13.5" height="13.5" fill="white"/>
</clipPath>
</defs>
</svg>
