<svg width="14" height="14" viewBox="0 0 14 14" fill="none" xmlns="http://www.w3.org/2000/svg">
<g id="remix-icons/line/health/first-aid-kit-line" clip-path="url(#clip0_19034_22333)">
<g id="Group">
<path id="Vector" d="M9 0.5625C9.3105 0.5625 9.5625 0.8145 9.5625 1.125V2.8125H11.8125C12.123 2.8125 12.375 3.0645 12.375 3.375V11.25C12.375 11.5605 12.123 11.8125 11.8125 11.8125H1.6875C1.377 11.8125 1.125 11.5605 1.125 11.25V3.375C1.125 3.0645 1.377 2.8125 1.6875 2.8125H3.9375V1.125C3.9375 0.8145 4.1895 0.5625 4.5 0.5625H9ZM11.25 3.9375H2.25V10.6875H11.25V3.9375ZM7.3125 5.0625V6.75H9V7.875H7.31194L7.3125 9.5625H6.1875L6.18694 7.875H4.5V6.75H6.1875V5.0625H7.3125ZM8.4375 1.6875H5.0625V2.8125H8.4375V1.6875Z" fill="black"/>
</g>
</g>
<defs>
<clipPath id="clip0_19034_22333">
<rect width="13.5" height="13.5" fill="white"/>
</clipPath>
</defs>
</svg>
