<svg width="24" height="24" viewBox="0 0 24 24" fill="none" xmlns="http://www.w3.org/2000/svg">
<g id="instagram">
<rect id="bg" x="1.5" y="2.09961" width="21" height="21" rx="6" fill="#213170"/>
<rect id="bg_2" x="1.5" y="2.09961" width="21" height="21" rx="6" fill="#213170"/>
<rect id="bg_3" x="1.5" y="2.09961" width="21" height="21" rx="6" fill="#213170"/>
<g id="instagram_2">
<path d="M17.25 8.47461C17.25 9.09593 16.7463 9.59961 16.125 9.59961C15.5037 9.59961 15 9.09593 15 8.47461C15 7.85329 15.5037 7.34961 16.125 7.34961C16.7463 7.34961 17.25 7.85329 17.25 8.47461Z" fill="white"/>
<path fill-rule="evenodd" clip-rule="evenodd" d="M12 16.3496C14.0711 16.3496 15.75 14.6707 15.75 12.5996C15.75 10.5285 14.0711 8.84961 12 8.84961C9.92893 8.84961 8.25 10.5285 8.25 12.5996C8.25 14.6707 9.92893 16.3496 12 16.3496ZM12 14.8496C13.2426 14.8496 14.25 13.8423 14.25 12.5996C14.25 11.357 13.2426 10.3496 12 10.3496C10.7574 10.3496 9.75 11.357 9.75 12.5996C9.75 13.8423 10.7574 14.8496 12 14.8496Z" fill="white"/>
<path fill-rule="evenodd" clip-rule="evenodd" d="M4.5 12.2996C4.5 9.77937 4.5 8.51925 4.99047 7.55665C5.4219 6.70992 6.11031 6.02151 6.95704 5.59008C7.91965 5.09961 9.17976 5.09961 11.7 5.09961H12.3C14.8202 5.09961 16.0804 5.09961 17.043 5.59008C17.8897 6.02151 18.5781 6.70992 19.0095 7.55665C19.5 8.51925 19.5 9.77937 19.5 12.2996V12.8996C19.5 15.4198 19.5 16.68 19.0095 17.6426C18.5781 18.4893 17.8897 19.1777 17.043 19.6091C16.0804 20.0996 14.8202 20.0996 12.3 20.0996H11.7C9.17976 20.0996 7.91965 20.0996 6.95704 19.6091C6.11031 19.1777 5.4219 18.4893 4.99047 17.6426C4.5 16.68 4.5 15.4198 4.5 12.8996V12.2996ZM11.7 6.59961H12.3C13.5849 6.59961 14.4583 6.60078 15.1334 6.65594C15.7911 6.70967 16.1274 6.80706 16.362 6.92659C16.9265 7.21421 17.3854 7.67315 17.673 8.23764C17.7926 8.47224 17.8899 8.80854 17.9437 9.46617C17.9988 10.1413 18 11.0147 18 12.2996V12.8996C18 14.1845 17.9988 15.0579 17.9437 15.7331C17.8899 16.3907 17.7926 16.727 17.673 16.9616C17.3854 17.5261 16.9265 17.985 16.362 18.2726C16.1274 18.3922 15.7911 18.4896 15.1334 18.5433C14.4583 18.5984 13.5849 18.5996 12.3 18.5996H11.7C10.4151 18.5996 9.54169 18.5984 8.86656 18.5433C8.20893 18.4896 7.87263 18.3922 7.63803 18.2726C7.07354 17.985 6.6146 17.5261 6.32698 16.9616C6.20745 16.727 6.11006 16.3907 6.05633 15.7331C6.00117 15.0579 6 14.1845 6 12.8996V12.2996C6 11.0147 6.00117 10.1413 6.05633 9.46617C6.11006 8.80854 6.20745 8.47224 6.32698 8.23764C6.6146 7.67315 7.07354 7.21421 7.63803 6.92659C7.87263 6.80706 8.20893 6.70967 8.86656 6.65594C9.54169 6.60078 10.4151 6.59961 11.7 6.59961Z" fill="white"/>
</g>
</g>
</svg>
