<svg width="24" height="24" viewBox="0 0 24 24" fill="none" xmlns="http://www.w3.org/2000/svg">
<g id="linkedin">
<rect id="bg" x="1.5" y="2.09961" width="21" height="21" rx="10.5" fill="#213170"/>
<g id="linked_in">
<path d="M9.46392 7.86872C9.46392 8.56963 8.85639 9.13783 8.10696 9.13783C7.35753 9.13783 6.75 8.56963 6.75 7.86872C6.75 7.16781 7.35753 6.59961 8.10696 6.59961C8.85639 6.59961 9.46392 7.16781 9.46392 7.86872Z" fill="white"/>
<path d="M6.93557 10.0707H9.25515V17.0996H6.93557V10.0707Z" fill="white"/>
<path d="M12.9897 10.0707H10.6701V17.0996H12.9897C12.9897 17.0996 12.9897 14.8868 12.9897 13.5033C12.9897 12.6728 13.2732 11.8388 14.4046 11.8388C15.6833 11.8388 15.6756 12.9255 15.6696 13.7674C15.6618 14.8679 15.6804 15.991 15.6804 17.0996H18V13.3899C17.9804 11.0211 17.3631 9.92967 15.3325 9.92967C14.1265 9.92967 13.379 10.4772 12.9897 10.9725V10.0707Z" fill="white"/>
</g>
</g>
</svg>
