<svg width="200" height="40" viewBox="0 0 200 40" fill="none" xmlns="http://www.w3.org/2000/svg">
<g id="Logo ">
<g id="Group">
<path id="Vector" d="M20.5 29.9983V12H23.8015L34.5273 26.6827L45.0909 12H48.3924V29.9983H46.1754V14.0385L35.5887 28.8152H33.5803L22.717 14.0385V29.9983H20.5Z" fill="#213170"/>
<path id="Vector_2" d="M54.6523 29.9983V12H72.0623V13.8755H56.8694V19.8749H71.4282V21.7504H56.8694V28.1245H72.3869V30H54.654L54.6523 29.9983Z" fill="#213170"/>
<path id="Vector_3" d="M77.1562 29.9983V12H90.3176C92.0495 12 93.4735 12.1059 94.5894 12.3159C95.7054 12.5277 96.5763 12.936 97.2038 13.541C97.8313 14.146 98.2701 15.0266 98.5201 16.1828C98.7701 17.339 98.896 18.8666 98.896 20.7639V21.2328C98.896 23.0679 98.7701 24.5619 98.5201 25.7147C98.2701 26.8675 97.8313 27.7532 97.2038 28.3749C96.5763 28.9967 95.7054 29.4219 94.5894 29.6521C93.4735 29.8824 92.0495 29.9983 90.3176 29.9983H77.1562ZM79.3733 28.0523H90.3176C91.6952 28.0523 92.8029 27.9867 93.6423 27.8523C94.4818 27.7195 95.1209 27.4305 95.5597 26.9852C95.9984 26.5398 96.2948 25.8609 96.4488 24.9467C96.6028 24.0325 96.6789 22.794 96.6789 21.2328V20.7639C96.6789 19.4665 96.6326 18.396 96.5399 17.5524C96.4471 16.7088 96.2766 16.0433 96.0266 15.5543C95.7766 15.0669 95.414 14.7073 94.9421 14.4754C94.4685 14.2452 93.8543 14.099 93.1009 14.0368C92.3459 13.9746 91.4187 13.9427 90.3193 13.9427H79.3749V28.0506L79.3733 28.0523Z" fill="#213170"/>
<path id="Vector_4" d="M112.49 29.9983L102.93 12H105.47L113.967 28.4052L122.464 12H124.969L115.444 29.9983H112.488H112.49Z" fill="#213170"/>
<path id="Vector_5" d="M129.781 29.9983V12H131.998V29.9983H129.781Z" fill="#213170"/>
<path id="Vector_6" d="M145.937 29.9983V13.8755H137.07V12H157.02V13.8755H148.154V30H145.937V29.9983Z" fill="#213170"/>
<path id="Vector_7" d="M156.855 29.9983L167.2 12H170.156L180.501 29.9983H177.915L175.698 25.8743H161.659L159.442 29.9983H156.855ZM162.766 23.9989H174.588L168.677 13.499L162.766 23.9989Z" fill="#213170"/>
</g>
</g>
</svg>
