<svg width="20" height="20" viewBox="0 0 20 20" fill="none" xmlns="http://www.w3.org/2000/svg">
<g id="Phone">
<path id="Vector" d="M10.7013 15.1304C12.0858 15.8272 13.7084 16.3354 15.6034 16.5676C16.1768 16.6378 16.6654 16.1774 16.6654 15.5997V14.1138C16.6654 13.6549 16.3531 13.2549 15.9079 13.1436L13.8813 12.637C13.5405 12.5518 13.1801 12.6517 12.9317 12.9L10.7013 15.1304ZM10.7013 15.1304C8.10494 13.8236 6.34624 11.8538 5.19967 9.7987M5.19967 9.7987C4.1456 7.90938 3.60888 5.94794 3.41424 4.36328C3.34532 3.80216 3.80058 3.33301 4.36592 3.33301H5.84556C6.32224 3.33301 6.73266 3.66947 6.82614 4.13689L7.39374 6.97488C7.45931 7.30274 7.35669 7.64168 7.12027 7.87811L5.19967 9.7987Z" stroke="#213170" stroke-width="1.5"/>
</g>
</svg>
