<svg width="24" height="24" viewBox="0 0 24 24" fill="none" xmlns="http://www.w3.org/2000/svg">
<g id="twitter">
<path id="twitter_2" d="M8.84156 21.5996C6.41531 21.5996 4.15363 20.8939 2.25 19.6763C3.86624 19.7809 6.71855 19.5304 8.49268 17.8382C5.82381 17.7157 4.6202 15.6688 4.4632 14.7941C4.68997 14.8816 5.77148 14.9865 6.382 14.7416C3.31192 13.9718 2.84095 11.2776 2.94561 10.4553C3.52125 10.8577 4.49809 10.9977 4.88185 10.9627C2.02109 8.91579 3.05027 5.83668 3.55613 5.17187C5.60912 8.01611 8.6859 9.61354 12.4923 9.70239C12.4205 9.38763 12.3826 9.05992 12.3826 8.72334C12.3826 6.3078 14.3351 4.34961 16.7435 4.34961C18.0019 4.34961 19.1358 4.88417 19.9318 5.73924C20.7727 5.54219 22.0382 5.08091 22.6569 4.68201C22.3451 5.80169 21.3742 6.73573 20.7869 7.08192C20.7821 7.07009 20.7918 7.09369 20.7869 7.08192C21.3028 7.00389 22.6986 6.73564 23.25 6.36153C22.9773 6.99055 21.948 8.03641 21.1033 8.62193C21.2605 15.5532 15.9574 21.5996 8.84156 21.5996Z" fill="#213170"/>
</g>
</svg>
