<svg width="20" height="20" viewBox="0 0 20 20" fill="none" xmlns="http://www.w3.org/2000/svg">
<g id="Money Dollar">
<path id="Vector" d="M1.66797 5H18.3346M1.66797 5V15M1.66797 5L1.66797 8.33333C2.55202 8.33333 3.39987 7.98214 4.02499 7.35702C4.65011 6.7319 5.0013 5.88406 5.0013 5L1.66797 5ZM18.3346 5V15M18.3346 5H15.0013C15.0013 5.43774 15.0875 5.87119 15.255 6.27561C15.4226 6.68003 15.6681 7.04749 15.9776 7.35702C16.2871 7.66655 16.6546 7.91208 17.059 8.0796C17.4634 8.24711 17.8969 8.33333 18.3346 8.33333V5ZM18.3346 15H1.66797M18.3346 15V11.6667C17.4506 11.6667 16.6027 12.0179 15.9776 12.643C15.3525 13.2681 15.0013 14.1159 15.0013 15H18.3346ZM1.66797 15L5.0013 15C5.0013 14.1159 4.65011 13.2681 4.02499 12.643C3.39987 12.0179 2.55202 11.6667 1.66797 11.6667L1.66797 15ZM11.7297 7.91667H9.44575C8.8321 7.91667 8.33464 8.38304 8.33464 8.95833C8.33464 9.53363 8.8321 10 9.44575 10H10.9272C11.5409 10 12.0383 10.4664 12.0383 11.0417C12.0383 11.617 11.5409 12.0833 10.9272 12.0833H8.33464M10.0013 7.93111V7.08333M10.0013 12.9311V12.0833" stroke="#213170" stroke-width="1.5" stroke-linecap="round" stroke-linejoin="round"/>
</g>
</svg>
