<svg width="20" height="20" viewBox="0 0 20 20" fill="none" xmlns="http://www.w3.org/2000/svg">
<g id="Suitcase">
<path id="Vector" d="M3.33333 10.834H16.6667M3.33333 10.834C2.8731 10.834 2.5 10.4609 2.5 10.0007V8.33398C2.5 7.41351 3.24619 6.66732 4.16667 6.66732H15.8333C16.7538 6.66732 17.5 7.41351 17.5 8.33398V10.0007C17.5 10.4609 17.1269 10.834 16.6667 10.834M3.33333 10.834L3.33333 15.0007C3.33333 15.9211 4.07953 16.6673 5 16.6673H15C15.9205 16.6673 16.6667 15.9211 16.6667 15.0007V10.834M10 10.0007V11.6673M12.5 6.66732V5.00065C12.5 4.08018 11.7538 3.33398 10.8333 3.33398H9.16667C8.24619 3.33398 7.5 4.08018 7.5 5.00065V6.66732H12.5Z" stroke="#213170" stroke-width="1.5" stroke-linecap="round" stroke-linejoin="round"/>
</g>
</svg>
