<svg width="14" height="14" viewBox="0 0 14 14" fill="none" xmlns="http://www.w3.org/2000/svg">
<g id="remix-icons/line/weather/moon-line" clip-path="url(#clip0_19034_5518)">
<g id="Group">
<path id="Vector" d="M5.625 3.9375C5.62489 4.71974 5.85777 5.48428 6.29394 6.13362C6.73011 6.78296 7.34981 7.28767 8.074 7.58338C8.79819 7.87909 9.59404 7.9524 10.3601 7.79395C11.1261 7.63551 11.8275 7.25249 12.375 6.69375V6.75C12.375 9.85669 9.85669 12.375 6.75 12.375C3.64331 12.375 1.125 9.85669 1.125 6.75C1.125 3.64331 3.64331 1.125 6.75 1.125H6.80625C6.43165 1.49126 6.13414 1.92879 5.93127 2.41182C5.7284 2.89485 5.62426 3.4136 5.625 3.9375ZM2.25 6.75C2.24959 7.75405 2.58498 8.7294 3.20281 9.52085C3.82064 10.3123 4.68542 10.8744 5.65954 11.1177C6.63367 11.361 7.66118 11.2716 8.5786 10.8636C9.49602 10.4555 10.2506 9.75245 10.7224 8.86613C9.88281 9.06392 9.00663 9.04392 8.17696 8.80803C7.3473 8.57214 6.59166 8.12817 5.98174 7.51826C5.37183 6.90834 4.92786 6.1527 4.69197 5.32304C4.45608 4.49337 4.43608 3.61719 4.63387 2.77763C3.91364 3.16133 3.31132 3.73369 2.89139 4.43342C2.47147 5.13316 2.24976 5.93393 2.25 6.75Z" fill="black"/>
</g>
</g>
<defs>
<clipPath id="clip0_19034_5518">
<rect width="13.5" height="13.5" fill="white"/>
</clipPath>
</defs>
</svg>
