<svg width="14" height="14" viewBox="0 0 14 14" fill="none" xmlns="http://www.w3.org/2000/svg">
<g id="remix-icons/line/weather/sun-line" clip-path="url(#clip0_19034_17545)">
<g id="Group">
<path id="Vector" d="M6.75 10.125C5.85489 10.125 4.99645 9.76942 4.36351 9.13649C3.73058 8.50355 3.375 7.64511 3.375 6.75C3.375 5.85489 3.73058 4.99645 4.36351 4.36351C4.99645 3.73058 5.85489 3.375 6.75 3.375C7.64511 3.375 8.50355 3.73058 9.13649 4.36351C9.76942 4.99645 10.125 5.85489 10.125 6.75C10.125 7.64511 9.76942 8.50355 9.13649 9.13649C8.50355 9.76942 7.64511 10.125 6.75 10.125ZM6.75 9C7.34674 9 7.91903 8.76295 8.34099 8.34099C8.76295 7.91903 9 7.34674 9 6.75C9 6.15326 8.76295 5.58097 8.34099 5.15901C7.91903 4.73705 7.34674 4.5 6.75 4.5C6.15326 4.5 5.58097 4.73705 5.15901 5.15901C4.73705 5.58097 4.5 6.15326 4.5 6.75C4.5 7.34674 4.73705 7.91903 5.15901 8.34099C5.58097 8.76295 6.15326 9 6.75 9ZM6.1875 0.5625H7.3125V2.25H6.1875V0.5625ZM6.1875 11.25H7.3125V12.9375H6.1875V11.25ZM1.97719 2.77256L2.77256 1.97719L3.96563 3.17025L3.17025 3.96563L1.97719 2.77312V2.77256ZM9.53438 10.3298L10.3298 9.53438L11.5228 10.7274L10.7274 11.5228L9.53438 10.3298ZM10.7274 1.97662L11.5228 2.77256L10.3298 3.96563L9.53438 3.17025L10.7274 1.97719V1.97662ZM3.17025 9.53438L3.96563 10.3298L2.77256 11.5228L1.97719 10.7274L3.17025 9.53438ZM12.9375 6.1875V7.3125H11.25V6.1875H12.9375ZM2.25 6.1875V7.3125H0.5625V6.1875H2.25Z" fill="white"/>
</g>
</g>
<defs>
<clipPath id="clip0_19034_17545">
<rect width="13.5" height="13.5" fill="white"/>
</clipPath>
</defs>
</svg>
