<svg width="15" height="15" viewBox="0 0 15 15" fill="none" xmlns="http://www.w3.org/2000/svg">
<g id="remix-icons/line/media/notification-3-line" clip-path="url(#clip0_19034_893)">
<g id="Group">
<path id="Vector" d="M12.5 10.625H13.75V11.875H1.25V10.625H2.5V6.25C2.5 4.92392 3.02678 3.65215 3.96447 2.71447C4.90215 1.77678 6.17392 1.25 7.5 1.25C8.82608 1.25 10.0979 1.77678 11.0355 2.71447C11.9732 3.65215 12.5 4.92392 12.5 6.25V10.625ZM11.25 10.625V6.25C11.25 5.25544 10.8549 4.30161 10.1517 3.59835C9.44839 2.89509 8.49456 2.5 7.5 2.5C6.50544 2.5 5.55161 2.89509 4.84835 3.59835C4.14509 4.30161 3.75 5.25544 3.75 6.25V10.625H11.25ZM5.625 13.125H9.375V14.375H5.625V13.125Z" fill="black"/>
</g>
</g>
<defs>
<clipPath id="clip0_19034_893">
<rect width="15" height="15" fill="white"/>
</clipPath>
</defs>
</svg>
