<svg width="18" height="18" viewBox="0 0 18 18" fill="none" xmlns="http://www.w3.org/2000/svg">
<g id="Chart Icon" clip-path="url(#clip0_16188_27956)">
<g id="Group">
<path id="Vector" d="M6 2.25V3.75H4.5V6.75C4.5 8.4075 5.8425 9.75 7.5 9.75C9.1575 9.75 10.5 8.4075 10.5 6.75V3.75H9V2.25H11.25C11.664 2.25 12 2.586 12 3V6.75C12 8.97975 10.3785 10.83 8.25 11.1877V12.375C8.25 13.8247 9.42525 15 10.875 15C11.9978 15 12.9562 14.295 13.3312 13.3027C12.546 12.9525 12 12.165 12 11.25C12 10.0072 13.0072 9 14.25 9C15.4928 9 16.5 10.0072 16.5 11.25C16.5 12.2782 15.81 13.1453 14.868 13.4137C14.4075 15.189 12.7943 16.5 10.875 16.5C8.5965 16.5 6.75 14.6535 6.75 12.375V11.1877C4.6215 10.8307 3 8.97975 3 6.75V3C3 2.586 3.336 2.25 3.75 2.25H6ZM14.25 10.5C13.836 10.5 13.5 10.836 13.5 11.25C13.5 11.664 13.836 12 14.25 12C14.664 12 15 11.664 15 11.25C15 10.836 14.664 10.5 14.25 10.5Z" fill="white"/>
</g>
</g>
<defs>
<clipPath id="clip0_16188_27956">
<rect width="18" height="18" fill="white"/>
</clipPath>
</defs>
</svg>
