<svg width="177" height="56" viewBox="0 0 177 56" fill="none" xmlns="http://www.w3.org/2000/svg">
<g id="Group 2">
<g id="Ellipse 2048">
<circle cx="7.5" cy="7.5" r="7.5" fill="white"/>
<circle cx="7.5" cy="7.5" r="11.25" stroke="white" stroke-opacity="0.4" stroke-width="7.5"/>
</g>
<path id="Vector 940" d="M95.25 8.625L95.5772 8.44177L95.4698 8.25H95.25V8.625ZM121.5 55.5L121.173 55.6832L121.28 55.875H121.5V55.5ZM174.625 55.5C174.625 56.6046 175.52 57.5 176.625 57.5C177.73 57.5 178.625 56.6046 178.625 55.5C178.625 54.3954 177.73 53.5 176.625 53.5C175.52 53.5 174.625 54.3954 174.625 55.5ZM10.125 9H95.25V8.25H10.125V9ZM94.9228 8.80823L121.173 55.6832L121.827 55.3168L95.5772 8.44177L94.9228 8.80823ZM121.5 55.875H176.625V55.125H121.5V55.875Z" fill="#6C63FF"/>
</g>
</svg>
