<svg width="177" height="37" viewBox="0 0 177 37" fill="none" xmlns="http://www.w3.org/2000/svg">
<g id="Group 1">
<g id="Ellipse 2048">
<circle cx="7.5" cy="28.875" r="7.5" fill="white"/>
<circle cx="7.5" cy="28.875" r="11.25" stroke="white" stroke-opacity="0.4" stroke-width="7.5"/>
</g>
<path id="Vector 939" d="M75.375 30.75V31.125H75.5303L75.6402 31.0152L75.375 30.75ZM106.125 0V-0.375H105.97L105.86 -0.265165L106.125 0ZM174.25 0C174.25 1.10457 175.145 2 176.25 2C177.355 2 178.25 1.10457 178.25 0C178.25 -1.10457 177.355 -2 176.25 -2C175.145 -2 174.25 -1.10457 174.25 0ZM12.75 31.125H75.375V30.375H12.75V31.125ZM75.6402 31.0152L106.39 0.265165L105.86 -0.265165L75.1098 30.4848L75.6402 31.0152ZM106.125 0.375H176.25V-0.375H106.125V0.375Z" fill="#DF1C41"/>
</g>
</svg>
