<svg width="171" height="48" viewBox="0 0 171 48" fill="none" xmlns="http://www.w3.org/2000/svg">
<g id="Group 4">
<g id="Ellipse 2048">
<circle cx="7.5" cy="7.5" r="7.5" fill="white"/>
<circle cx="7.5" cy="7.5" r="11.25" stroke="white" stroke-opacity="0.4" stroke-width="7.5"/>
</g>
<path id="Vector 942" d="M82.875 8.25L83.2178 8.098L83.1189 7.875H82.875V8.25ZM100.5 48L100.157 48.152L100.256 48.375H100.5V48ZM168.25 48C168.25 49.1046 169.145 50 170.25 50C171.355 50 172.25 49.1046 172.25 48C172.25 46.8954 171.355 46 170.25 46C169.145 46 168.25 46.8954 168.25 48ZM10.875 8.625H82.875V7.875H10.875V8.625ZM82.5322 8.402L100.157 48.152L100.843 47.848L83.2178 8.098L82.5322 8.402ZM100.5 48.375H170.25V47.625H100.5V48.375Z" fill="#40C4AA"/>
</g>
</svg>
