<svg width="177" height="15" viewBox="0 0 177 15" fill="none" xmlns="http://www.w3.org/2000/svg">
<g id="Group 3">
<g id="Ellipse 2048">
<circle cx="7.5" cy="7.5" r="7.5" fill="white"/>
<circle cx="7.5" cy="7.5" r="11.25" stroke="white" stroke-opacity="0.4" stroke-width="7.5"/>
</g>
<path id="Vector 941" d="M76.875 8.25V8.625H76.9233L76.97 8.61276L76.875 8.25ZM92.625 4.125V3.75H92.5767L92.53 3.76224L92.625 4.125ZM175 4.125C175 5.22957 175.895 6.125 177 6.125C178.105 6.125 179 5.22957 179 4.125C179 3.02043 178.105 2.125 177 2.125C175.895 2.125 175 3.02043 175 4.125ZM7.875 8.625H76.875V7.875H7.875V8.625ZM76.97 8.61276L92.72 4.48776L92.53 3.76224L76.78 7.88724L76.97 8.61276ZM92.625 4.5H177V3.75H92.625V4.5Z" fill="#FFBE4C"/>
</g>
</svg>
