<svg width="30" height="30" viewBox="0 0 30 30" fill="none" xmlns="http://www.w3.org/2000/svg">
<g id="material-symbols:dermatology">
<path id="Vector" d="M2.5 26.2505V15.0005C2.5 14.313 2.745 13.7247 3.235 13.2355C3.725 12.7463 4.31333 12.5013 5 12.5005H11.25V15.0005C11.25 16.0422 11.6146 16.9276 12.3438 17.6567C13.0729 18.3859 13.9583 18.7505 15 18.7505C16.0417 18.7505 16.9271 18.3859 17.6562 17.6567C18.3854 16.9276 18.75 16.0422 18.75 15.0005V12.5005H25C25.6875 12.5005 26.2763 12.7455 26.7663 13.2355C27.2563 13.7255 27.5008 14.3138 27.5 15.0005V26.2505H2.5ZM15 16.2505C14.6458 16.2505 14.3492 16.1305 14.11 15.8905C13.8708 15.6505 13.7508 15.3538 13.75 15.0005C13.75 12.7297 14.0104 10.4901 14.5312 8.28174C15.0521 6.07341 16.1875 4.25049 17.9375 2.81299C18.2083 2.58383 18.5104 2.48466 18.8438 2.51549C19.1771 2.54633 19.4583 2.69758 19.6875 2.96924C19.9167 3.24091 20.0158 3.54299 19.985 3.87549C19.9542 4.20799 19.8029 4.48924 19.5312 4.71924C18.0729 5.94841 17.1617 7.49008 16.7975 9.34424C16.4333 11.1984 16.2508 13.0838 16.25 15.0005C16.25 15.3547 16.13 15.6517 15.89 15.8917C15.65 16.1317 15.3533 16.2513 15 16.2505ZM7.1875 19.3755C7.45833 19.3755 7.6825 19.2867 7.86 19.1092C8.0375 18.9317 8.12583 18.708 8.125 18.438C8.12417 18.168 8.03542 17.9442 7.85875 17.7667C7.68208 17.5892 7.45833 17.5005 7.1875 17.5005C6.91667 17.5005 6.69292 17.5892 6.51625 17.7667C6.33958 17.9442 6.25083 18.168 6.25 18.438C6.24917 18.708 6.33792 18.9322 6.51625 19.1105C6.69458 19.2888 6.91833 19.3772 7.1875 19.3755ZM8.4375 22.5005C8.70833 22.5005 8.9325 22.4117 9.11 22.2342C9.2875 22.0567 9.37583 21.833 9.375 21.563C9.37417 21.293 9.28542 21.0692 9.10875 20.8917C8.93208 20.7142 8.70833 20.6255 8.4375 20.6255C8.16667 20.6255 7.94292 20.7142 7.76625 20.8917C7.58958 21.0692 7.50083 21.293 7.5 21.563C7.49917 21.833 7.58792 22.0572 7.76625 22.2355C7.94458 22.4138 8.16833 22.5022 8.4375 22.5005ZM22.8125 19.3755C23.0833 19.3755 23.3075 19.2867 23.485 19.1092C23.6625 18.9317 23.7508 18.708 23.75 18.438C23.7492 18.168 23.6604 17.9442 23.4838 17.7667C23.3071 17.5892 23.0833 17.5005 22.8125 17.5005C22.5417 17.5005 22.3179 17.5892 22.1412 17.7667C21.9646 17.9442 21.8758 18.168 21.875 18.438C21.8742 18.708 21.9629 18.9322 22.1412 19.1105C22.3196 19.2888 22.5433 19.3772 22.8125 19.3755Z" fill="#33CFFF"/>
</g>
</svg>
