<svg width="30" height="30" viewBox="0 0 30 30" fill="none" xmlns="http://www.w3.org/2000/svg">
<g id="mingcute:bed-fill">
<g id="Group">
<path id="Vector" fill-rule="evenodd" clip-rule="evenodd" d="M3.74609 6.25055C4.05226 6.25059 4.34777 6.36299 4.57656 6.56644C4.80535 6.76989 4.95152 7.05024 4.98734 7.3543L4.99609 7.50055V16.2505H13.7461V10.0005C13.7461 9.69438 13.8585 9.39888 14.062 9.17008C14.2654 8.94129 14.5458 8.79512 14.8498 8.7593L14.9961 8.75055H23.7461C24.7026 8.7505 25.623 9.11596 26.3189 9.77215C27.0149 10.4284 27.4337 11.3257 27.4898 12.2806L27.4961 12.5005V22.5005C27.4957 22.8191 27.3737 23.1256 27.155 23.3573C26.9363 23.5889 26.6374 23.7283 26.3194 23.747C26.0013 23.7657 25.6881 23.6622 25.4438 23.4577C25.1995 23.2532 25.0425 22.9632 25.0048 22.6468L24.9961 22.5005V18.7505H4.99609V22.5005C4.99574 22.8191 4.87374 23.1256 4.65503 23.3573C4.43632 23.5889 4.1374 23.7283 3.81935 23.747C3.5013 23.7657 3.18812 23.6622 2.9438 23.4577C2.69949 23.2532 2.54247 22.9632 2.50484 22.6468L2.49609 22.5005V7.50055C2.49609 7.16903 2.62779 6.85109 2.86221 6.61667C3.09663 6.38225 3.41457 6.25055 3.74609 6.25055ZM9.37109 8.75055C10.1999 8.75055 10.9948 9.07979 11.5808 9.66584C12.1669 10.2519 12.4961 11.0467 12.4961 11.8755C12.4961 12.7044 12.1669 13.4992 11.5808 14.0853C10.9948 14.6713 10.1999 15.0005 9.37109 15.0005C8.54229 15.0005 7.74744 14.6713 7.16139 14.0853C6.57533 13.4992 6.24609 12.7044 6.24609 11.8755C6.24609 11.0467 6.57533 10.2519 7.16139 9.66584C7.74744 9.07979 8.54229 8.75055 9.37109 8.75055Z" fill="#40C4AA"/>
</g>
</g>
</svg>
