<svg width="18" height="18" viewBox="0 0 18 18" fill="none" xmlns="http://www.w3.org/2000/svg">
<g id="Star Icon" clip-path="url(#clip0_16188_27835)">
<g id="Group">
<path id="Vector" d="M8.74971 0.364563L11.8312 4.873L17.0717 6.41081L13.7358 10.7348L13.8925 16.1933L8.74971 14.3573L3.6069 16.1933L3.76367 10.7348L0.427734 6.41081L5.66826 4.873L8.74971 0.364563ZM8.74971 2.94873L6.57826 6.12644L2.88503 7.20925L5.23659 10.2557L5.12503 14.1021L8.74971 12.8085L12.3737 14.1021L12.2628 10.2557L14.6137 7.20925L10.9212 6.12644L8.74971 2.94873ZM7.29138 8.74998C7.29138 9.13675 7.44503 9.50769 7.71852 9.78118C7.99201 10.0547 8.36294 10.2083 8.74971 10.2083C9.13649 10.2083 9.50742 10.0547 9.78091 9.78118C10.0544 9.50769 10.208 9.13675 10.208 8.74998H11.6664C11.6664 9.52353 11.3591 10.2654 10.8121 10.8124C10.2651 11.3594 9.52326 11.6666 8.74971 11.6666C7.97617 11.6666 7.2343 11.3594 6.68732 10.8124C6.14034 10.2654 5.83305 9.52353 5.83305 8.74998H7.29138Z" fill="white"/>
</g>
</g>
<defs>
<clipPath id="clip0_16188_27835">
<rect width="17.5" height="17.5" fill="white"/>
</clipPath>
</defs>
</svg>
