<svg width="29" height="15" viewBox="0 0 29 15" fill="none" xmlns="http://www.w3.org/2000/svg">
<path id="Vector" d="M27.1906 6.57155C26.3553 5.77901 25.3113 5.38268 24.0588 5.38257H17.9479C17.5176 5.38257 17.0609 5.29026 16.7569 5.03982C16.4725 4.80547 16.1656 4.02571 16.1656 4.02571C15.8644 3.23101 15.4163 2.51374 14.8498 1.91933C13.6351 0.639776 12.0662 0 10.1431 0H6.51754C4.60693 0 3.04128 0.639776 1.8206 1.91933C1.02979 2.74817 0.499632 3.74846 0.222576 4.91647C0.159644 5.18373 0.110287 5.45463 0.0747341 5.72792C-0.0249114 6.25431 -0.0249114 7.99455 0.0747341 8.52078C0.110271 8.79412 0.159628 9.06508 0.222576 9.33239C0.499632 10.5002 1.02979 11.5009 1.8206 12.3295C3.04118 13.6091 4.60683 14.2489 6.51754 14.2489H10.1425C12.0403 14.2489 13.6028 13.5604 14.8301 12.1836C15.6087 11.3095 16.1399 10.2893 16.4235 9.12307C15.6754 8.92807 14.9749 8.55652 14.3705 8.0342C14.2327 9.01061 13.853 9.83197 13.2265 10.4944C12.4228 11.3427 11.3948 11.767 10.1425 11.7672H6.51754C5.27759 11.7672 4.25866 11.3263 3.45248 10.4531C3.21034 10.1931 2.99343 9.90622 2.80523 9.59697C2.11983 8.44066 2.10357 6.71245 2.15472 6.49468C2.25437 6.06969 2.35579 4.98652 3.45263 3.79689C4.25881 2.92369 5.27773 2.48278 6.51768 2.48278H10.1426C11.3951 2.48278 12.4231 2.92081 13.2266 3.79689C13.5873 4.1874 13.8757 4.65098 14.0761 5.16204C14.0977 5.23679 14.1227 5.30944 14.1481 5.3816C14.1808 5.47911 14.2647 5.67413 14.2647 5.67413C14.4651 6.11292 14.7479 6.50443 15.1205 6.84328C15.8794 7.52466 16.8219 7.86535 17.9481 7.86535H24.059C24.6789 7.86535 25.2104 8.01161 25.6535 8.30414C26.1848 8.65215 26.4505 9.14593 26.4505 9.78549C26.4505 10.425 26.1911 10.9328 25.6722 11.3086C25.2169 11.6145 24.6791 11.7674 24.059 11.7675H16.7962C16.2377 12.7486 15.5023 13.5935 14.6352 14.25H24.0588C25.3115 14.25 26.3555 13.8675 27.1906 13.1026C28.0634 12.2821 28.4999 11.1972 28.5 9.8479C28.5001 8.49857 28.0636 7.40645 27.1906 6.57155Z" fill="black"/>
</svg>
