<svg width="30" height="30" viewBox="0 0 30 30" fill="none" xmlns="http://www.w3.org/2000/svg">
<g id="Water Icon" clip-path="url(#clip0_16188_27941)">
<g id="Group">
<path id="Vector" d="M7.04501 8.295L15 0.339996L22.955 8.295C24.5283 9.86834 25.5998 11.8729 26.0338 14.0552C26.4679 16.2375 26.2451 18.4995 25.3936 20.5551C24.5421 22.6108 23.1002 24.3678 21.2502 25.6039C19.4001 26.8401 17.225 27.4999 15 27.4999C12.775 27.4999 10.5999 26.8401 8.74985 25.6039C6.8998 24.3678 5.45786 22.6108 4.60637 20.5551C3.75488 18.4995 3.53209 16.2375 3.96616 14.0552C4.40023 11.8729 5.47168 9.86834 7.04501 8.295ZM16.25 13.75V8.125L10.625 16.25H13.75V21.875L19.375 13.75H16.25Z" fill="#6C63FF"/>
</g>
</g>
<defs>
<clipPath id="clip0_16188_27941">
<rect width="30" height="30" fill="white"/>
</clipPath>
</defs>
</svg>
