<svg width="14" height="14" viewBox="0 0 14 14" fill="none" xmlns="http://www.w3.org/2000/svg">
<g id="remix-icons/line/system/share-box-line" clip-path="url(#clip0_19034_13959)">
<g id="Group">
<path id="Vector" d="M5.625 1.6875V2.8125H2.8125V10.6875H10.6875V7.875H11.8125V11.25C11.8125 11.3992 11.7532 11.5423 11.6477 11.6477C11.5423 11.7532 11.3992 11.8125 11.25 11.8125H2.25C2.10082 11.8125 1.95774 11.7532 1.85225 11.6477C1.74676 11.5423 1.6875 11.3992 1.6875 11.25V2.25C1.6875 2.10082 1.74676 1.95774 1.85225 1.85225C1.95774 1.74676 2.10082 1.6875 2.25 1.6875H5.625ZM9.89213 2.8125H7.3125V1.6875H11.8125V6.1875H10.6875V3.60787L6.75 7.54537L5.95463 6.75L9.89213 2.8125Z" fill="white"/>
</g>
</g>
<defs>
<clipPath id="clip0_19034_13959">
<rect width="13.5" height="13.5" fill="white"/>
</clipPath>
</defs>
</svg>
