<svg width="14" height="14" viewBox="0 0 14 14" fill="none" xmlns="http://www.w3.org/2000/svg">
<g id="remix-icons/line/business/calendar-check-line" clip-path="url(#clip0_19034_22326)">
<g id="Group">
<path id="Vector" d="M5.0625 0.5625V1.6875H8.4375V0.5625H9.5625V1.6875H11.8125C11.9617 1.6875 12.1048 1.74676 12.2102 1.85225C12.3157 1.95774 12.375 2.10082 12.375 2.25V11.25C12.375 11.3992 12.3157 11.5423 12.2102 11.6477C12.1048 11.7532 11.9617 11.8125 11.8125 11.8125H1.6875C1.53832 11.8125 1.39524 11.7532 1.28975 11.6477C1.18426 11.5423 1.125 11.3992 1.125 11.25V2.25C1.125 2.10082 1.18426 1.95774 1.28975 1.85225C1.39524 1.74676 1.53832 1.6875 1.6875 1.6875H3.9375V0.5625H5.0625ZM11.25 5.625H2.25V10.6875H11.25V5.625ZM8.45775 6.264L9.25313 7.05938L6.46875 9.84375L4.47975 7.85475L5.27625 7.05938L6.46931 8.253L8.45831 6.264H8.45775ZM3.9375 2.8125H2.25V4.5H11.25V2.8125H9.5625V3.375H8.4375V2.8125H5.0625V3.375H3.9375V2.8125Z" fill="black"/>
</g>
</g>
<defs>
<clipPath id="clip0_19034_22326">
<rect width="13.5" height="13.5" fill="white"/>
</clipPath>
</defs>
</svg>
